<svg width="811" height="546" xmlns="http://www.w3.org/2000/svg"><defs><radialGradient fx="50%" fy="50%" r="51.049%" gradientTransform="scale(.67263 1) rotate(23.793 .622 1.078)" id="a"><stop stop-color="#FFF" offset="0%"/><stop stop-color="#BACCFF" stop-opacity="0" offset="15.138%"/><stop stop-color="#7BBBFF" offset="63.695%"/><stop stop-color="#66C5FD" offset="100%"/></radialGradient></defs><path d="M1022.263 1120.735v-22.787m0-21.183v-26.052m0-60.256v-11.792m8.758 97.775l2.77-26.349m1.864-17.74l1.776-16.895m2.025-19.271l4.266-78.406m2.186 130.728l4.579-21.54m7.305-34.371l3.376-15.88m-17.446 116.956l3.586-11.035m12.15-37.392l12.144-37.378m6.854-21.095l4.003-12.32 8.036-24.73 6.847-21.075m-59.122 195.186l9.316-20.924m12.259-27.534l6.115-13.735m18.308-41.12l6.347-14.256m15.889-35.687l9.325-20.945m-6.82 59.821l22.091-38.263m12.869-22.289l24.4-42.262m-86.11 173.436l21.239-30.333m17.306-24.717l34.025-48.592m31.426-44.882l19.288-27.545m-85.72 148.65l13.615-15.662m76.85-88.405l29.432-33.859M1100.731 1091l33.896-31.608m33.244-31l23.196-21.632m33.176-30.936l25.47-23.751m15.745-14.683l53.717-49.107m-262.807 249.662l63.622-47.943m76.154-57.386l21.795-16.424m38.298-28.86l29.406-22.158m-151.782 130.97l49.088-29.494m45.086-27.091l34.465-20.708m18.8-11.296l55.937-33.61m-87.658 82.864l41.778-19.482M1315.65 1026l90.669-42.947m-302.122 151.185l31.805-10.952 39.846-13.72m53.184-18.312l15.203-5.235m82.564-28.43l17.371-5.98 25.29-8.708m-136.777 70.629l39.326-9.08m33.327-7.694l42.39-9.786m-166.134 55.24l15.722-1.93m60.398-7.416l28.506-3.5m74.402-9.136l62.743-7.844m-296.917 47.229l13.265-.232m61.693-1.076l61.718-1.078m35.823-.625l37.256-.65 53.394-.932m-253.843 17.575l19.96 1.395m33.06 2.312l64.852 4.535m84.319 5.896l50.738 3.548m-324.872-18.634l72.524 12.788 30.497 5.377m24.64 4.345l24.279 4.281 65.646 11.575m37.78 6.662l19.68 3.47m-192.236-20.502l25.175 7.219m35.16 10.082l57.438 16.47m33.504 9.607l45.41 13.021m-216.382-50.12l49.744 20.098m8.204 3.315l43.113 17.419m49.253 19.899l34.191 13.814m-114.699-24.438l18.554 9.865m47.195 25.095l22.853 12.15 95.842 49.414m-323.631-165.909l63.005 42.498 43.248 29.17 29.406 19.836 37.68 25.415m34.232 23.09l32.726 22.074m-196.246-119.795l23.434 19.663m35.999 30.207l20.906 17.542 36.427 30.566m17.071 14.325l34.015 28.542m15.624 13.11l19.033 15.97m-220.755-173.821l40.333 41.765m38.536 39.906l15.822 16.385m32.634 33.792l18.608 19.27m-140.132-129.508l24.459 31.306m22.737 29.103L1164 1342.45m-88.148-96.658l11.752 18.807m21.47 34.36l11.695 18.716m22.855 36.575l15.946 25.52m-86.647-113.731l9.511 18.668 15.828 31.064 21.213 41.631m20.47 40.174l15.327 30.083m-98.309-170.7l11.54 30.064 14.25 37.12m21.044 54.822l18.866 49.15m-67.708-139.585l16.54 61.729m4.925 18.382l7.943 29.64m-47.655-140.58l2.144 13.535 9.337 58.95 7.574 47.822m-29.96-143.992l1.141 21.777m7.098 135.435l2.118 40.42m-19.554-157.194l-2.644 50.445m-1.923 36.705l-3.035 57.903m7.149-214.42l-6.381 40.288m-4.77 30.117l-7.555 47.698-8.505 53.701m12.662-133.26l-2.707 10.101m-13.48 50.311l-7.395 27.595m-10.402 38.825l-9.104 33.975m6.746-89.378l-10.308 26.854-16.455 42.867m-9.828 25.602l-7.57 19.72m43.546-150.407l-12.388 24.312m-31.5 61.822l-10.743 21.084m60.325-143.787l-26.25 42.01m-10.386 16.621l-26.143 41.838-12.276 19.644m75.43-136.224l-15.947 20.41m-33.412 42.765l-15.581 19.943-39.878 51.041m-22.712 29.07l-20.558 26.313m169.512-223.584l-23.727 24.571m-9.975 10.329l-28.663 29.682-23.472 24.305-18.648 19.311-38.26 39.62m-9.943 10.296l-34.072 35.283m-28.576 29.59l-10.447 10.819m192.791-211.454l-20.62 17.302m-45.58 38.245l-24.277 20.372-24.63 20.668-28.877 24.23m109.402-107.398l-33.559 22.636m-33.565 22.64l-32.761 22.098m-27.551 18.583l-50.635 34.154m214.492-153.012l-31.065 16.518m-58.666 31.193l-41.327 21.974m-37.88 20.141l-23.694 12.599m-41.685 22.164l-28.767 15.296m236.916-136.763l-35.763 14.45m-21.962 8.873l-57.912 23.397m-56.692 22.905l-44.918 18.149-102.034 40.17m336.361-142.75l-27.482 7.881m-28.737 8.24l-43.335 12.426m-59.62 17.096l-59.208 16.978m-33.576 9.627l-30.64 8.786m311.418-93.548l-36.773 6.484m-21.114 3.723l-43.925 7.745m-34.685 6.116l-56.56 9.973m-21.648 3.817l-61.803 10.898m157.428-44.512l-43.517 3.043m-35.814 2.504l-52.098 3.643m-46.672 3.264l-27.69 1.936m268.673-30.556l-31.768-.554-53.885-.94m-26.22-.458l-55.607-.971m-36.791-.642l-45.792-.8-52.23.23m294.476-6.778l-50.829-6.24m-71.267-8.751l-61.478-7.549m-39.559-4.857l-24.268-2.98m182.18 4.246l-67.617-15.61-37.248-8.6m-19.532-4.51l-37.943-8.76-63.287-15.826M951.9 1138.22l-37.857-13.035m-18.71-6.442l-54.545-18.782m-66.148-22.776l-52.622-18.12m-25.468-8.769l-21.481-7.396m308.895 102.047l-44.917-20.945m-24.917-11.619l-35.346-16.482m-60.512-28.217l-47.759-22.27m-21.941-10.232l-34.03-15.868-56.761-24.8m249.236 99.437l-40.903-24.577m-34.508-20.734l-27.044-16.25m-49.005-29.445l-24.149-14.51-24.118-14.492m227.04 123.437l-50.835-38.306m-30.798-23.208l-28.423-21.418m-12.901-9.722l-35.124-26.468m53.047 5.968l-30.497-28.438m136.64 109.159l-21.817-25.098-22.093-25.415m-8.51-9.79l-17.611-20.26m131.342 144.862l-29.56-42.215-17.596-25.13m-15.7-22.422l-22.076-31.528m-9.343-13.343l-13.412-19.154m75.133 83.584l-13.954-24.17m-13-22.517l-8.188-14.181m-4.757-8.24l-7.942-13.755m60.355 81.182l-13.901-31.223m-14.77-33.176l-23.153-68.89m77.748 175.233l-9.201-28.317m-12.426-38.244l-13.27-40.84m43.484 115.806l-4.228-20.012m-6.147-29.081a53432.63 53432.63 0 0 0-10.116-47.724m-3.768-17.223l-6.686-37.878m34.725 134.88l-1.943-18.486m-1.68-15.983l-1.781-16.953m-3.51-33.398l-5.836-74.298" stroke="url(#a)" stroke-width="2" transform="rotate(180 712.45 716.466)" fill="none" opacity=".25" stroke-linecap="square"/></svg>